#!OML:ASF X:\für Bonn\!DataBase\2005_08_10_Bjorn_Final\c3d\bjorn.ASF
:FULLY-SPECIFIED
:DEGREES
186
root 2.06417 19.2507 3.33876 -189.55 -1.9702 -208.133
lowerback 34.2554 -3.16698 -2.28395
upperback 20.4027 4.5081 -5.72072
thorax 5.50322 6.16216 -5.64492
lowerneck -5.62568 12.188 3.30879
upperneck 2.52414 17.2628 -23.64
head 4.18395 7.63539 -6.63271
rclavicle -2.54444e-014 6.36111e-014
rhumerus -25.2402 -20.9904 -59.927
rradius 46.2698
rwrist -1.67895
rhand -14.1118 13.7799
rfingers 7.12502
rthumb 12.0213 -15.8549
lclavicle -2.54444e-014 6.36111e-014
lhumerus -25.6783 5.76635 65.1716
lradius 96.0379
lwrist -13.8902
lhand -56.3338 -25.1593
lfingers 7.12502
lthumb -28.6552 2.66323
rfemur -6.32128 4.31674 -9.49407
rtibia 32.5077
rfoot -12.9874 10.8637
rtoes -11.0773
lfemur -63.463 24.9726 22.9179
ltibia 111.159
lfoot -17.2021 -13.3371
ltoes -12.9234
187
root 2.08574 19.2451 3.28207 -189.587 -2.61583 -208.027
lowerback 33.4437 5.33225 4.00781
upperback 21.3234 0.828833 -2.68245
thorax 6.56297 -1.75889 -5.4785
lowerneck -5.05896 12.2116 3.39425
upperneck 2.99105 17.3655 -23.7202
head 4.25375 7.68543 -6.68968
rclavicle -1.59028e-014 3.18055e-014
rhumerus -26.4208 -21.9947 -59.0282
rradius 45.1582
rwrist -1.58582
rhand -13.8982 13.487
rfingers 7.12502
rthumb 12.2272 -16.1356
lclavicle -1.59028e-014 3.18055e-014
lhumerus -25.4709 6.77164 65.0328
lradius 95.619
lwrist -14.4617
lhand -56.5915 -24.9102
lfingers 7.12502
lthumb -28.9013 2.87049
rfemur -5.76107 3.93998 -9.43868
rtibia 32.5648
rfoot -13.1196 10.9814
rtoes -10.4591
lfemur -61.6959 24.164 21.4758
ltibia 107.022
lfoot -16.0321 -11.5515
ltoes -10.1162
188
root 2.09889 19.2279 3.22072 -189.68 -3.28041 -207.9
lowerback 32.4858 4.89164 4.32484
upperback 21.2945 0.473517 -2.54471
thorax 6.85852 -1.85578 -5.42773
lowerneck -4.53119 12.2087 3.48113
upperneck 3.6138 17.4562 -23.7398
head 4.36887 7.71624 -6.72657
rclavicle 4.13472e-014 -6.36111e-015
rhumerus -27.6682 -23.0454 -58.1471
rradius 44.0095
rwrist -1.66692
rhand -13.952 13.3981
rfingers 7.12502
rthumb 12.1754 -16.2276
lclavicle 4.13472e-014 -6.36111e-015
lhumerus -25.2044 7.78348 64.8023
lradius 94.9297
lwrist -14.9086
lhand -57.0224 -25.0892
lfingers 7.12502
lthumb -29.3128 2.62036
rfemur -5.17715 3.52943 -9.40875
rtibia 32.7014
rfoot -13.2823 11.2026
rtoes -9.83552
lfemur -59.4926 23.5054 20.067
ltibia 102.071
lfoot -14.7022 -9.95779
ltoes -9.85456
189
root 2.10523 19.2036 3.15434 -189.791 -3.96468 -207.776
lowerback 31.4621 4.41407 4.70206
upperback 21.2648 0.0754923 -2.47573
thorax 7.18516 -1.95922 -5.4824
lowerneck -4.05522 12.1761 3.62487
upperneck 4.37213 17.5235 -23.6738
head 4.52654 7.72658 -6.74444
rclavicle -7.15625e-014 -1.59028e-013
rhumerus -28.9985 -24.2409 -57.2767
rradius 42.8496
rwrist -1.8826
rhand -14.105 13.4761
rfingers 7.12502
rthumb 12.0279 -16.1583
lclavicle -7.15625e-014 -1.59028e-013
lhumerus -24.9218 8.76925 64.4437
lradius 94.0106
lwrist -15.3958
lhand -57.6436 -25.4208
lfingers 7.12502
lthumb -29.9058 2.18351
rfemur -4.59106 3.08484 -9.42749
rtibia 32.9075
rfoot -13.4815 11.5113
rtoes -9.34074
lfemur -57.0741 22.9351 18.6956
ltibia 96.3233
lfoot -12.6635 -8.55268
ltoes -11.247
190
root 2.10885 19.18 3.08537 -189.912 -4.69454 -207.623
lowerback 30.4335 3.88428 5.10876
upperback 21.1819 -0.378866 -2.42766
thorax 7.45534 -2.08157 -5.56775
lowerneck -3.58245 12.1351 3.81262
upperneck 5.27985 17.5995 -23.5956
head 4.73407 7.7285 -6.76476
rclavicle -9.85972e-014 -1.145e-013
rhumerus -30.4489 -25.348 -56.347
rradius 41.7268
rwrist -2.38225
rhand -14.3488 13.6259
rfingers 7.12502
rthumb 11.7928 -16.0221
lclavicle -9.85972e-014 -1.145e-013
lhumerus -24.6961 9.67769 64.0385
lradius 92.9738
lwrist -15.705
lhand -58.3572 -25.704
lfingers 7.12502
lthumb -30.5865 1.77545
rfemur -3.97157 2.58845 -9.44185
rtibia 33.1211
rfoot -13.6631 11.8793
rtoes -9.02754
lfemur -54.4888 22.2702 17.4653
ltibia 89.8468
lfoot -9.86173 -7.33141
ltoes -14.6878
191
root 2.11178 19.1629 3.01372 -190.018 -5.39764 -207.563
lowerback 29.3317 3.37827 5.42153
upperback 21.0907 -0.836302 -2.41632
thorax 7.74733 -2.21059 -5.65297
lowerneck -3.1669 12.0875 4.05111
upperneck 6.32959 17.6862 -23.4946
head 4.99942 7.7209 -6.78248
rclavicle -9.38264e-014 -4.45278e-014
rhumerus -31.9546 -26.4326 -55.3708
rradius 40.6875
rwrist -3.25915
rhand -14.8157 13.6714
rfingers 7.12502
rthumb 11.3425 -16.0018
lclavicle -9.38264e-014 -4.45278e-014
lhumerus -24.4612 10.5954 63.6391
lradius 91.7548
lwrist -16.0646
lhand -59.0526 -26.0182
lfingers 7.12502
lthumb -31.2494 1.33542
rfemur -3.33091 2.09235 -9.58504
rtibia 33.2504
rfoot -13.7905 12.3208
rtoes -8.8043
lfemur -51.6635 21.4417 16.3986
ltibia 82.7955
lfoot -6.45933 -6.35833
ltoes -16.6218
192
root 2.11776 19.1555 2.94109 -190.057 -6.1086 -207.528
lowerback 28.1736 2.86202 5.68341
upperback 20.9325 -1.30179 -2.39813
thorax 7.99108 -2.34054 -5.7077
lowerneck -2.69804 12.0256 4.24723
upperneck 7.44381 17.7507 -23.3914
head 5.26918 7.69576 -6.80246
rclavicle 2.06736e-014 1.145e-013
rhumerus -33.5549 -27.3783 -54.2964
rradius 39.7482
rwrist -4.54943
rhand -15.5684 13.6031
rfingers 7.12502
rthumb 10.6165 -16.1087
lclavicle 2.06736e-014 1.145e-013
lhumerus -24.2864 11.5315 63.2852
lradius 90.3828
lwrist -16.4145
lhand -59.5339 -26.4416
lfingers 7.12502
lthumb -31.7081 0.822437
rfemur -2.6754 1.64552 -9.75978
rtibia 33.2604
rfoot -13.7992 12.7902
rtoes -8.38836
lfemur -48.7375 20.5063 15.4805
ltibia 75.2123
lfoot -2.26825 -5.45072
ltoes -15.798
193
root 2.12348 19.1537 2.86604 -190.013 -6.88831 -207.537
lowerback 26.884 2.32123 5.87437
upperback 20.7244 -1.80314 -2.34899
thorax 8.2383 -2.48794 -5.69563
lowerneck -2.1371 11.9769 4.21488
upperneck 8.54291 17.8048 -23.1508
head 5.48322 7.66897 -6.75353
rclavicle 5.08889e-014 5.40694e-014
rhumerus -35.2224 -28.3678 -53.0553
rradius 38.9038
rwrist -6.00583
rhand -16.2 13.4371
rfingers 7.12502
rthumb 10.0072 -16.305
lclavicle 5.08889e-014 5.40694e-014
lhumerus -24.1649 12.4697 62.9552
lradius 88.8359
lwrist -16.6919
lhand -59.8785 -27.2132
lfingers 7.12502
lthumb -32.0361 -0.0144662
rfemur -1.9807 1.16674 -10.0154
rtibia 33.1458
rfoot -13.6383 13.3518
rtoes -7.6008
lfemur -45.6515 19.3016 14.7661
ltibia 67.0738
lfoot 2.58295 -4.80948
ltoes -17.7198
